<svg width="22" height="22" viewBox="0 0 22 22" fill="none" xmlns="http://www.w3.org/2000/svg">
<path d="M21.4107 6.875H0.589286C0.265179 6.875 0 6.64297 0 6.35938V4.8125C0 3.67383 1.0558 2.75 2.35714 2.75H4.71429V0.515625C4.71429 0.232031 4.97946 0 5.30357 0H7.26786C7.59196 0 7.85714 0.232031 7.85714 0.515625V2.75H14.1429V0.515625C14.1429 0.232031 14.408 0 14.7321 0H16.6964C17.0205 0 17.2857 0.232031 17.2857 0.515625V2.75H19.6429C20.9442 2.75 22 3.67383 22 4.8125V6.35938C22 6.64297 21.7348 6.875 21.4107 6.875ZM0.589286 8.25H21.4107C21.7348 8.25 22 8.48203 22 8.76562V19.9375C22 21.0762 20.9442 22 19.6429 22H2.35714C1.0558 22 0 21.0762 0 19.9375V8.76562C0 8.48203 0.265179 8.25 0.589286 8.25ZM15.5179 16.5C15.842 16.5 16.1071 16.268 16.1071 15.9844V14.2656C16.1071 13.982 15.842 13.75 15.5179 13.75H6.48214C6.15804 13.75 5.89286 13.982 5.89286 14.2656V15.9844C5.89286 16.268 6.15804 16.5 6.48214 16.5H15.5179Z" fill="#E98074"/>
</svg>
