<svg width="50" height="44" viewBox="0 0 50 44" fill="none" xmlns="http://www.w3.org/2000/svg">
<path d="M25 0.125C11.1927 0.125 0 12.7168 0 28.25C0 33.4062 1.23698 38.2363 3.39062 42.3906C3.8776 43.3301 4.80556 43.875 5.77257 43.875H44.2274C45.1944 43.875 46.1224 43.3301 46.6094 42.3906C48.763 38.2363 50 33.4062 50 28.25C50 12.7168 38.8073 0.125 25 0.125ZM25 6.375C26.2769 6.375 27.3073 7.36426 27.6319 8.68457C27.5356 8.90527 27.4028 9.09766 27.3325 9.33594L26.5321 12.0381C26.0868 12.3789 25.5799 12.625 25.0009 12.625C23.467 12.625 22.2231 11.2256 22.2231 9.5C22.2231 7.77441 23.4661 6.375 25 6.375ZM8.33333 34.5C6.79948 34.5 5.55556 33.1006 5.55556 31.375C5.55556 29.6494 6.79948 28.25 8.33333 28.25C9.86719 28.25 11.1111 29.6494 11.1111 31.375C11.1111 33.1006 9.86719 34.5 8.33333 34.5ZM12.5 18.875C10.9661 18.875 9.72222 17.4756 9.72222 15.75C9.72222 14.0244 10.9661 12.625 12.5 12.625C14.0339 12.625 15.2778 14.0244 15.2778 15.75C15.2778 17.4756 14.0339 18.875 12.5 18.875ZM33.921 11.8037L28.5972 29.7725C29.7856 30.9189 30.5556 32.5996 30.5556 34.5C30.5556 35.6445 30.2622 36.7021 29.7847 37.625H20.2153C19.7378 36.7021 19.4444 35.6445 19.4444 34.5C19.4444 31.1855 21.7448 28.501 24.6441 28.29L29.9687 10.3203C30.3307 9.09375 31.5078 8.4209 32.6042 8.83887C33.6953 9.24805 34.2839 10.5762 33.921 11.8037ZM35.1936 17.3896L36.5408 12.8438C36.842 12.7178 37.1597 12.626 37.5 12.626C39.0339 12.626 40.2778 14.0254 40.2778 15.751C40.2778 17.4766 39.0339 18.876 37.5 18.876C36.5121 18.875 35.6866 18.2627 35.1936 17.3896ZM41.6667 34.5C40.1328 34.5 38.8889 33.1006 38.8889 31.375C38.8889 29.6494 40.1328 28.25 41.6667 28.25C43.2005 28.25 44.4444 29.6494 44.4444 31.375C44.4444 33.1006 43.2005 34.5 41.6667 34.5Z" fill="#E85A4F"/>
</svg>
