<svg width="27" height="20" viewBox="0 0 27 20" fill="none" xmlns="http://www.w3.org/2000/svg">
    <g clip-path="url(#clip0)">
        <path d="M15.9214 16.25H17.3238C17.5098 16.25 17.6881 16.2006 17.8196 16.1127C17.9511 16.0248 18.025 15.9056 18.025 15.7812V7.34375C18.025 7.21943 17.9511 7.1002 17.8196 7.01229C17.6881 6.92439 17.5098 6.875 17.3238 6.875H15.9214C15.7354 6.875 15.557 6.92439 15.4255 7.01229C15.294 7.1002 15.2202 7.21943 15.2202 7.34375V15.7812C15.2202 15.9056 15.294 16.0248 15.4255 16.1127C15.557 16.2006 15.7354 16.25 15.9214 16.25ZM25.5045 3.125H20.689L18.7022 0.910156C18.4529 0.632428 18.1002 0.402614 17.6785 0.243108C17.2568 0.0836025 16.7805 -0.000154039 16.2959 2.12674e-07H10.4046C9.9203 -1.90925e-05 9.44421 0.0838016 9.02273 0.243301C8.60125 0.4028 8.24873 0.632542 7.9995 0.910156L6.01158 3.125H1.19605C0.948088 3.125 0.710282 3.19085 0.534946 3.30806C0.359611 3.42527 0.261108 3.58424 0.261108 3.75L0.261108 4.375C0.261108 4.54076 0.359611 4.69973 0.534946 4.81694C0.710282 4.93415 0.948088 5 1.19605 5H2.13099V18.125C2.13099 18.6223 2.4265 19.0992 2.9525 19.4508C3.47851 19.8025 4.19193 20 4.93581 20H21.7647C22.5086 20 23.2221 19.8025 23.7481 19.4508C24.2741 19.0992 24.5696 18.6223 24.5696 18.125V5H25.5045C25.7525 5 25.9903 4.93415 26.1656 4.81694C26.341 4.69973 26.4395 4.54076 26.4395 4.375V3.75C26.4395 3.58424 26.341 3.42527 26.1656 3.30806C25.9903 3.19085 25.7525 3.125 25.5045 3.125ZM10.3024 1.98867C10.3336 1.9539 10.3778 1.92515 10.4307 1.90523C10.4835 1.8853 10.5432 1.87489 10.6039 1.875H16.0967C16.1572 1.87495 16.2168 1.8854 16.2695 1.90532C16.3223 1.92524 16.3664 1.95396 16.3976 1.98867L17.4179 3.125H9.2827L10.3024 1.98867ZM21.7647 18.125H4.93581V5H21.7647V18.125ZM9.37678 16.25H10.7792C10.9652 16.25 11.1435 16.2006 11.275 16.1127C11.4065 16.0248 11.4804 15.9056 11.4804 15.7812V7.34375C11.4804 7.21943 11.4065 7.1002 11.275 7.01229C11.1435 6.92439 10.9652 6.875 10.7792 6.875H9.37678C9.19081 6.875 9.01246 6.92439 8.88095 7.01229C8.74945 7.1002 8.67558 7.21943 8.67558 7.34375V15.7812C8.67558 15.9056 8.74945 16.0248 8.88095 16.1127C9.01246 16.2006 9.19081 16.25 9.37678 16.25Z" fill="#E85A50" />
    </g>
    <defs>
        <clipPath id="clip0">
            <rect width="26.1783" height="20" fill="white" transform="translate(0.261108)" />
        </clipPath>
    </defs>
</svg>