<svg width="27" height="21" viewBox="0 0 27 21" fill="none" xmlns="http://www.w3.org/2000/svg">
    <path d="M18.5864 13.4756L20.0408 12.2256C20.268 12.0303 20.6634 12.167 20.6634 12.4482V18.1279C20.6634 19.1631 19.6863 20.0029 18.4819 20.0029H2.48402C1.27963 20.0029 0.30249 19.1631 0.30249 18.1279V4.37793C0.30249 3.34277 1.27963 2.50293 2.48402 2.50293H14.9142C15.2369 2.50293 15.4005 2.83887 15.1733 3.03809L13.7189 4.28809C13.6507 4.34668 13.5598 4.37793 13.4598 4.37793H2.48402V18.1279H18.4819V13.6943C18.4819 13.6123 18.5183 13.5342 18.5864 13.4756ZM25.7037 5.59277L13.7689 15.8506L9.66035 16.2412C8.46959 16.3545 7.45609 15.4912 7.58789 14.46L8.04238 10.9287L19.9772 0.670899C21.0179 -0.223633 22.6995 -0.223633 23.7358 0.670899L25.6991 2.3584C26.7399 3.25293 26.7399 4.70215 25.7037 5.59277ZM21.2134 6.79981L18.5728 4.53027L10.1285 11.792L9.79669 14.3428L12.7645 14.0576L21.2134 6.79981ZM24.1584 3.68652L22.1951 1.99902C22.0087 1.83887 21.7042 1.83887 21.5224 1.99902L20.1181 3.20606L22.7586 5.47559L24.163 4.26856C24.3448 4.10449 24.3448 3.84668 24.1584 3.68652Z" fill="#E85A50" />
</svg>