<svg width="50" height="44" viewBox="0 0 50 44" fill="none" xmlns="http://www.w3.org/2000/svg">
<path d="M4.6875 0.125C2.09961 0.125 0 2.22461 0 4.8125V39.1875C0 41.7754 2.09961 43.875 4.6875 43.875H45.3125C47.9004 43.875 50 41.7754 50 39.1875V4.8125C50 2.22461 47.9004 0.125 45.3125 0.125H4.6875ZM4.6875 3.25H15.0391C15.3613 3.25 15.625 3.51367 15.625 3.83594V5.78906C15.625 6.11133 15.3613 6.375 15.0391 6.375H3.71094C3.38867 6.375 3.125 6.11133 3.125 5.78906V4.8125C3.125 3.95312 3.82812 3.25 4.6875 3.25ZM46.2891 12.625H3.71094C3.38867 12.625 3.125 12.3613 3.125 12.0391V8.52344C3.125 8.20117 3.38867 7.9375 3.71094 7.9375H17.1875L20.1367 3.51367C20.2441 3.34766 20.4297 3.25 20.625 3.25H45.3125C46.1719 3.25 46.875 3.95312 46.875 4.8125V12.0391C46.875 12.3613 46.6113 12.625 46.2891 12.625ZM25 38.4062C18.5352 38.4062 13.2812 33.1523 13.2812 26.6875C13.2812 20.2227 18.5352 14.9688 25 14.9688C31.4648 14.9688 36.7188 20.2227 36.7188 26.6875C36.7188 33.1523 31.4648 38.4062 25 38.4062ZM25 18.0938C20.2637 18.0938 16.4062 21.9512 16.4062 26.6875C16.4062 31.4238 20.2637 35.2812 25 35.2812C29.7363 35.2812 33.5938 31.4238 33.5938 26.6875C33.5938 21.9512 29.7363 18.0938 25 18.0938ZM20.3125 28.25C19.4531 28.25 18.75 27.5469 18.75 26.6875C18.75 23.2402 21.5527 20.4375 25 20.4375C25.8594 20.4375 26.5625 21.1406 26.5625 22C26.5625 22.8594 25.8594 23.5625 25 23.5625C23.2812 23.5625 21.875 24.9688 21.875 26.6875C21.875 27.5469 21.1719 28.25 20.3125 28.25Z" fill="#8E8D8A"/>
</svg>
