<svg width="25" height="21" viewBox="0 0 25 21" fill="none" xmlns="http://www.w3.org/2000/svg">
    <path d="M0.892857 4.44531H24.1071C24.6003 4.44531 25 4.09556 25 3.66406V1.71094C25 1.27944 24.6003 0.929688 24.1071 0.929688H0.892857C0.399721 0.929688 0 1.27944 0 1.71094V3.66406C0 4.09556 0.399721 4.44531 0.892857 4.44531ZM0.892857 12.2578H24.1071C24.6003 12.2578 25 11.9081 25 11.4766V9.52344C25 9.09194 24.6003 8.74219 24.1071 8.74219H0.892857C0.399721 8.74219 0 9.09194 0 9.52344V11.4766C0 11.9081 0.399721 12.2578 0.892857 12.2578ZM0.892857 20.0703H24.1071C24.6003 20.0703 25 19.7206 25 19.2891V17.3359C25 16.9044 24.6003 16.5547 24.1071 16.5547H0.892857C0.399721 16.5547 0 16.9044 0 17.3359V19.2891C0 19.7206 0.399721 20.0703 0.892857 20.0703Z" fill="#E85A4F" />
</svg>