<svg width="367" height="106" viewBox="0 0 367 106" fill="none" xmlns="http://www.w3.org/2000/svg">
    <path d="M50.7036 41.0243C50.7036 41.9003 50.5628 42.6088 50.2803 43.1499C49.9977 43.6909 49.6766 44.1161 49.317 44.4253C48.906 44.786 48.4694 45.0436 48.007 45.1982V83.7695H48.0841C48.0841 84.2848 48.1483 84.6456 48.2767 84.8517C48.4052 85.0579 48.5978 85.264 48.8546 85.4702C49.2656 85.7794 49.6765 86.2174 50.0875 86.7842C50.4984 87.3511 50.704 88.0722 50.704 88.9482V93.8182H34.8301V88.9482C34.8301 88.0722 35.0356 87.3511 35.4465 86.7842C35.8575 86.2174 36.2684 85.7794 36.6794 85.4702C36.9362 85.264 37.1289 85.0579 37.2573 84.8517C37.3858 84.6456 37.45 84.2848 37.45 83.7695V61.3533C37.45 61.2503 37.4371 61.173 37.4114 61.1214C37.3858 61.0699 37.3216 61.1472 37.2189 61.3533C35.6777 63.7753 34.2907 65.9912 33.0577 68.0009C32.4927 68.8769 31.9533 69.7272 31.4395 70.5517C30.9258 71.3762 30.4634 72.1363 30.0525 72.832C29.6415 73.5276 29.2819 74.1331 28.9737 74.6484C28.6655 75.1638 28.4599 75.4987 28.3572 75.6533C28.1004 76.1171 27.6894 76.452 27.1244 76.6582C26.5593 76.8643 25.9685 76.9673 25.3521 76.9673C24.7356 76.9673 24.1448 76.8643 23.5797 76.6582C23.0147 76.452 22.6294 76.1428 22.4239 75.7306C22.3211 75.576 22.1285 75.2411 21.8459 74.7257C21.5634 74.2104 21.2166 73.592 20.8057 72.8706C20.3947 72.1492 19.9324 71.3633 19.4186 70.513C18.9049 69.6628 18.3911 68.7996 17.8774 67.9236C16.6445 65.8623 15.2831 63.5691 13.7933 61.0441C13.7419 60.9411 13.6649 60.8895 13.5622 60.8895C13.4594 60.8895 13.408 60.9926 13.408 61.1987V83.7695C13.408 84.2848 13.4722 84.6456 13.6007 84.8517C13.7291 85.0579 13.9218 85.264 14.1786 85.4702C14.5896 85.7794 15.0005 86.2174 15.4115 86.7842C15.8224 87.3511 16.0279 88.0722 16.0279 88.9482V93.8182H0.231096V88.9482C0.231096 88.0722 0.436609 87.3511 0.847557 86.7842C1.25851 86.2174 1.66945 85.7794 2.0804 85.4702C2.28592 85.264 2.4529 85.0708 2.58136 84.8905C2.70981 84.7101 2.79974 84.388 2.85113 83.9242V45.1984C2.28607 45.0438 1.79806 44.7862 1.38712 44.4254C1.02749 44.1162 0.706388 43.6911 0.423817 43.15C0.141247 42.6089 0 41.9003 0 41.0243V36H10.9422C11.3018 36 11.61 36.0902 11.8669 36.2706C12.1237 36.4509 12.3805 36.8503 12.6374 37.4687C13.0997 38.4993 13.7162 39.7747 14.4868 41.2949C15.2573 42.8151 16.0793 44.4126 16.9526 46.0873C17.8259 47.762 18.7249 49.4369 19.6496 51.1116C20.5743 52.7863 21.3963 54.2937 22.1155 55.6335C22.8347 56.9733 23.4382 58.0684 23.9263 58.9186L24.6583 60.194C24.9151 60.5548 25.172 60.748 25.4288 60.7738C25.6856 60.7995 25.9425 60.6063 26.1993 60.194C26.8672 59.1119 27.5607 57.9267 28.2799 56.6384C28.8963 55.5562 29.5898 54.3452 30.3604 53.0054C31.131 51.6656 31.953 50.2743 32.8263 48.8313C34.7784 45.5333 37.0132 41.7714 39.5303 37.546C39.8385 36.876 40.1596 36.4509 40.4935 36.2706C40.8274 36.0902 41.1998 36 41.6108 36H50.7036V41.0243Z" fill="#E85A50" />
    <path d="M97.0227 93.8182C100.389 93.8102 101.888 93.4542 101.888 93.4542C101.888 93.4542 100.922 89.6472 100.738 87.3624C100.554 85.0777 100.449 83.8874 100.738 80.7626C101.013 77.8022 101.473 72.4264 103.465 71.1401C105.211 70.0121 111.325 67.4375 112.922 66.4228C114.519 65.4081 119.678 61.6003 120.721 60.7755C121.766 59.9506 127.479 55.5722 129.076 53.6061C130.672 51.6399 131.347 51.0683 132.33 49.1644C133.313 47.2615 133.927 44.152 133.927 42.7555C133.927 41.36 133.927 38.3138 133.496 37.2358C133.067 36.1568 132.944 35.9036 132.084 36.0302C131.224 36.1568 131.469 35.9026 130.918 37.0449C130.364 38.1872 129.874 40.0268 128.89 40.5352C127.907 41.0425 117.466 42.2482 113.597 43.9611C109.727 45.6741 106.483 47.2901 102.172 50.4333C99.0398 52.7169 96.5841 56.9055 96.5841 56.9055L96.5505 56.8514C96.5505 56.8514 94.1264 52.7179 90.995 50.4333C86.6851 47.2901 83.4397 45.6741 79.5695 43.9611C75.7002 42.2482 65.2588 41.0425 64.2767 40.5352C63.2926 40.0268 62.8021 38.1872 62.2495 37.0449C61.6969 35.9026 61.9422 36.1568 61.0833 36.0302C60.2223 35.9026 60.1002 36.1568 59.6697 37.2358C59.2402 38.3148 59.2402 41.36 59.2402 42.7555C59.2402 44.152 59.8549 47.2615 60.836 49.1644C61.819 51.0683 62.4948 51.6389 64.0915 53.6061C65.6883 55.5733 71.4015 59.9506 72.4447 60.7755C73.4888 61.6003 78.6485 65.4081 80.2452 66.4228C81.8419 67.4375 87.9552 70.0121 89.7025 71.1401C91.6941 72.4264 92.896 77.8011 93.1504 80.7626C93.4344 84.0824 93.3346 85.0777 93.1504 87.3624C92.9662 89.6472 92.1979 93.5652 92.1979 93.5652C92.1979 93.5652 94.0826 93.8212 97.0227 93.8182Z" fill="#E85A50" />
    <path d="M145.599 53.767C145.599 54.7708 146.062 55.6866 146.987 56.5147C147.913 57.3429 149.076 58.171 150.477 58.9991C151.878 59.8273 153.379 60.693 154.98 61.5965C156.581 62.4999 158.082 63.5288 159.483 64.6831C160.884 65.8375 162.048 67.1549 162.973 68.6356C163.899 70.1162 164.362 71.8603 164.362 73.8678V82.5255C164.362 84.4327 163.924 86.1016 163.048 87.532C162.173 88.9622 161.034 90.1422 159.633 91.0702C158.232 91.9992 156.644 92.6892 154.868 93.1402C153.091 93.5922 151.278 93.8182 149.426 93.8182C147.575 93.8182 145.749 93.5922 143.948 93.1402C142.146 92.6892 140.545 91.9992 139.144 91.0702C137.743 90.1422 136.618 88.9622 135.767 87.532C134.917 86.1016 134.491 84.4327 134.491 82.5255V76.1264H140.645C141.996 76.1264 143.01 76.5404 143.685 77.3686C144.36 78.1967 144.698 79.188 144.698 80.3423V81.848C144.698 82.651 145.161 83.3537 146.087 83.956C147.012 84.5582 148.125 84.8594 149.426 84.8594C150.727 84.8594 151.815 84.4955 152.691 83.7677C153.567 83.04 154.004 82.3248 154.004 81.6221V75.7499C154.004 74.0937 153.542 72.726 152.616 71.6469C151.69 70.5679 150.54 69.6143 149.164 68.7861C147.788 67.958 146.287 67.1675 144.661 66.4147C143.035 65.6618 141.533 64.7458 140.158 63.6668C138.782 62.5877 137.631 61.2828 136.705 59.752C135.78 58.2211 135.317 56.2764 135.317 53.9174V47.5935C135.317 45.5859 135.705 43.867 136.48 42.4365C137.256 41.0061 138.294 39.8267 139.595 38.8982C140.896 37.9697 142.397 37.2921 144.098 36.8655C145.799 36.4389 147.575 36.2256 149.426 36.2256C151.278 36.2256 153.054 36.464 154.755 36.9408C156.456 37.4176 157.945 38.1202 159.221 39.0487C160.496 39.9772 161.51 41.1566 162.26 42.587C163.011 44.0174 163.386 45.6863 163.386 47.5935V53.9174H157.757C156.506 53.9174 155.456 53.5409 154.605 52.7881C153.754 52.0352 153.329 51.0565 153.329 49.852V48.271C153.329 47.217 152.916 46.4015 152.091 45.8243C151.265 45.2471 150.352 44.9585 149.351 44.9585C148.301 44.9585 147.413 45.2596 146.687 45.8619C145.962 46.4642 145.599 47.1418 145.599 47.8946V53.7668V53.767ZM185.901 93.7432C181.248 93.7432 177.571 92.7012 174.869 90.6192C172.167 88.5362 170.816 85.5623 170.816 81.6976V48.2712C170.816 44.4065 172.154 41.4204 174.831 39.3124C177.508 37.2044 181.198 36.1504 185.901 36.1504C190.655 36.1504 194.32 37.2044 196.896 39.3124C199.473 41.4204 200.761 44.4065 200.761 48.2712V81.6976C200.761 85.5623 199.461 88.5362 196.859 90.6192C194.257 92.7012 190.604 93.7432 185.901 93.7432ZM190.329 49.1747C190.329 48.2712 190.154 47.5434 189.804 46.9913C189.454 46.4393 189.041 46.0126 188.566 45.7115C188.09 45.4104 187.603 45.1971 187.102 45.0716C186.602 44.9461 186.202 44.8834 185.901 44.8834C185.601 44.8834 185.201 44.9336 184.701 45.0339C184.2 45.1343 183.7 45.3225 183.199 45.5986C182.699 45.8746 182.261 46.2636 181.886 46.7656C181.511 47.2675 181.323 47.945 181.323 48.7982V81.02C181.323 81.7728 181.473 82.4002 181.774 82.9021C182.074 83.404 182.449 83.8055 182.899 84.1067C183.35 84.4078 183.85 84.6337 184.4 84.7842C184.951 84.9348 185.451 85.0101 185.901 85.0101C186.952 85.0101 187.953 84.7089 188.903 84.1067C189.854 83.5044 190.329 82.4504 190.329 80.9447V49.1747ZM222.751 93.5922C220.9 93.5922 219.086 93.3672 217.31 92.9152C215.534 92.4632 213.958 91.7732 212.582 90.8452C211.206 89.9162 210.093 88.7372 209.242 87.3063C208.391 85.8759 207.966 84.2071 207.966 82.2999V47.3679C207.966 45.4607 208.391 43.7919 209.242 42.3615C210.093 40.9311 211.218 39.7516 212.619 38.8231C214.02 37.8946 215.609 37.192 217.385 36.7152C219.161 36.2384 220.975 36 222.826 36C224.677 36 226.491 36.2384 228.267 36.7152C230.044 37.192 231.62 37.8946 232.996 38.8231C234.372 39.7516 235.472 40.9311 236.298 42.3615C237.124 43.7919 237.536 45.4607 237.536 47.3679V52.939H231.907C230.657 52.939 229.606 52.5625 228.755 51.8097C227.905 51.0568 227.479 50.0782 227.479 48.8736V48.7983C227.479 48.2964 227.417 47.7945 227.292 47.2925C227.167 46.7906 226.942 46.3515 226.616 45.9751C226.291 45.5986 225.816 45.2975 225.19 45.0717C224.565 44.8458 223.752 44.7329 222.751 44.7329C221.801 44.7329 221.025 44.8584 220.425 45.1093C219.824 45.3602 219.349 45.6614 218.999 46.0127C218.649 46.3641 218.411 46.7656 218.286 47.2173C218.161 47.669 218.098 48.0705 218.098 48.4218V81.3964C218.098 82.0991 218.548 82.8143 219.449 83.542C220.35 84.2698 221.45 84.6337 222.751 84.6337C224.052 84.6337 225.178 84.3325 226.129 83.7302C227.079 83.128 227.555 82.4253 227.555 81.6223V80.8694C227.555 79.7151 227.892 78.7238 228.568 77.8957C229.243 77.0676 230.256 76.6535 231.607 76.6535H237.536V82.2998C237.536 84.207 237.111 85.8759 236.261 87.3063C235.41 88.7362 234.297 89.9162 232.921 90.8442C231.545 91.7732 229.969 92.4632 228.193 92.9152C226.416 93.3662 224.603 93.5922 222.751 93.5922ZM255.699 83.4291C255.699 83.9812 255.774 84.3576 255.924 84.5584C256.074 84.7592 256.249 84.9348 256.45 85.0854C256.85 85.3865 257.25 85.8131 257.65 86.3652C258.051 86.9173 258.251 87.6199 258.251 88.4732V93.2162H242.865V88.4732C242.865 87.6199 243.065 86.9173 243.466 86.3652C243.866 85.8131 244.266 85.3865 244.666 85.0854C244.916 84.9348 245.104 84.7592 245.229 84.5584C245.354 84.3576 245.417 83.9812 245.417 83.4291V46.7656V46.6903C245.417 46.1884 245.354 45.837 245.229 45.6362C245.104 45.4354 244.916 45.2346 244.666 45.0339C244.266 44.7327 243.866 44.3061 243.466 43.754C243.065 43.202 242.865 42.4993 242.865 41.6461V36.9032H258.251V41.6461C258.251 42.4993 258.051 43.202 257.65 43.754C257.25 44.3061 256.85 44.7327 256.45 45.0339C256.249 45.2346 256.074 45.4354 255.924 45.6362C255.774 45.837 255.699 46.1884 255.699 46.6903V46.7656V83.4291ZM276.188 45.6363C275.938 45.6363 275.7 45.7494 275.475 45.9753C275.25 46.2011 275.137 46.4396 275.137 46.6905V59.1877C275.137 59.5391 275.25 59.8026 275.475 59.9782C275.7 60.1538 275.963 60.2417 276.263 60.2417H285.72C285.97 60.2417 286.232 60.3296 286.508 60.5052C286.783 60.6808 286.92 60.9694 286.92 61.3709V67.3937C286.92 68.0963 286.545 68.4476 285.795 68.4476H276.263C275.513 68.4476 275.137 68.7738 275.137 69.4263V83.5045C275.137 83.8057 275.262 84.0566 275.513 84.2574C275.763 84.4582 276.038 84.5585 276.338 84.5585H282.342C282.793 84.5585 283.143 84.3076 283.393 83.8057C283.493 83.5548 283.618 83.2536 283.768 82.9023C283.918 82.5509 284.131 82.2247 284.406 81.9236C284.681 81.6224 285.019 81.3589 285.419 81.1331C285.82 80.9072 286.295 80.7943 286.845 80.7943H291.498V91.3342C291.498 91.8862 291.223 92.3382 290.673 92.6892C290.123 93.0402 289.572 93.2162 289.022 93.2162H284.144H266.957H262.454V88.6992C262.454 87.595 262.604 86.7543 262.904 86.1771C263.204 85.5999 263.604 85.1858 264.105 84.9349C264.705 84.5835 265.005 84.0565 265.005 83.3539V46.7656C265.005 45.9626 264.68 45.3854 264.03 45.034C263.529 44.7831 263.142 44.3941 262.866 43.8671C262.591 43.3401 262.454 42.5747 262.454 41.5709V36.828H289.322C289.922 36.828 290.435 37.0538 290.861 37.5056C291.286 37.9573 291.498 38.3839 291.498 38.7854V48.7229H287.07C286.07 48.7229 285.269 48.472 284.669 47.9701C284.068 47.4682 283.643 46.9914 283.393 46.5397C283.043 45.9374 282.517 45.6363 281.817 45.6363H276.188ZM326.698 36.9786C327.748 36.9786 328.486 37.1539 328.912 37.5053C329.337 37.8566 329.55 38.6847 329.55 39.9897V45.2596V49.0238H325.197C323.896 49.0238 322.92 48.4215 322.27 47.217C322.019 46.6649 321.782 46.2885 321.557 46.0877C321.331 45.8869 320.794 45.7866 319.943 45.7866H318.967C318.317 45.7866 317.992 46.2132 317.992 47.0664L317.842 83.5041C317.842 84.006 317.942 84.3574 318.142 84.5581C318.342 84.7589 318.567 84.9597 318.817 85.1605C319.168 85.4114 319.518 85.8004 319.868 86.3274C320.218 86.8544 320.393 87.5696 320.393 88.4732V93.2912H305.083V88.4732C305.083 87.6198 305.271 86.9172 305.646 86.3651C306.021 85.8131 306.409 85.4116 306.809 85.1607C307.059 84.9599 307.259 84.734 307.41 84.4831C307.56 84.2322 307.635 83.906 307.635 83.5045V46.8409C307.635 46.4896 307.485 46.2261 307.184 46.0504C306.884 45.8748 306.609 45.7869 306.359 45.7869H305.608C305.308 45.7869 304.945 45.8622 304.52 46.0128C304.095 46.1634 303.732 46.5648 303.432 47.2173C303.082 47.92 302.694 48.3967 302.268 48.6477C301.843 48.8986 301.08 49.0241 299.979 49.0241H296.077V44.8834V39.99C296.077 38.8356 296.352 38.0451 296.902 37.6185C297.453 37.1919 298.153 36.9786 299.004 36.9786H326.698ZM367 36.828V41.6458C367 42.499 366.812 43.2017 366.437 43.7537C366.062 44.3058 365.699 44.7324 365.349 45.0336C365.148 45.1339 364.898 45.2845 364.598 45.4853C364.298 45.6861 364.098 45.9872 363.998 46.3887C363.948 46.489 363.798 46.9407 363.547 47.7438C363.297 48.5469 362.972 49.5883 362.572 50.8681C362.172 52.1479 361.709 53.5909 361.183 55.197C360.658 56.803 360.145 58.4342 359.645 60.0905C358.394 63.9552 357.018 68.3469 355.517 73.2652V83.4287C355.517 83.9306 355.592 84.2819 355.742 84.4827C355.892 84.6835 356.092 84.8843 356.343 85.0851C356.743 85.336 357.131 85.7375 357.506 86.2895C357.881 86.8416 358.069 87.5944 358.069 88.5482V93.2162H342.833V88.4732C342.833 87.6196 343.033 86.917 343.434 86.3649C343.834 85.8128 344.234 85.3862 344.634 85.0851C344.835 84.9345 344.997 84.7589 345.122 84.5581C345.247 84.3573 345.335 84.0311 345.385 83.5794V73.2654C343.684 68.2966 342.158 63.8548 340.807 59.94C340.207 58.2838 339.631 56.6401 339.081 55.0089C338.53 53.3777 338.03 51.9222 337.58 50.6424C337.129 49.3626 336.767 48.3212 336.492 47.5181C336.216 46.715 336.079 46.2633 336.079 46.163C335.979 45.9121 335.816 45.6862 335.591 45.4854C335.366 45.2846 335.203 45.1341 335.103 45.0337C334.703 44.7326 334.315 44.3059 333.94 43.7539C333.565 43.2018 333.377 42.4992 333.377 41.646V36.8278H347.787V41.9471C347.787 42.8505 347.749 43.5281 347.674 43.9798C347.599 44.4315 347.361 44.7829 346.961 45.0338C346.711 45.1844 346.461 45.36 346.211 45.5608C345.961 45.7616 345.886 46.0878 345.986 46.5395C345.986 46.6398 346.061 46.9535 346.211 47.4805C346.361 48.0075 346.523 48.66 346.699 49.4379C346.874 50.2158 347.086 51.0816 347.336 52.0352L348.087 54.8961C348.637 57.2048 349.288 59.7395 350.038 62.4998L350.188 62.2739C350.939 59.4633 351.614 56.9287 352.215 54.6702C352.465 53.7166 352.715 52.7755 352.965 51.847C353.215 50.9186 353.441 50.0778 353.641 49.325C353.841 48.5722 354.003 47.9322 354.129 47.4052C354.254 46.8783 354.341 46.5645 354.391 46.4642C354.491 46.0627 354.416 45.7616 354.166 45.5608C353.916 45.36 353.666 45.1844 353.416 45.0338C353.065 44.7829 352.84 44.3814 352.74 43.8293C352.64 43.2773 352.59 42.5495 352.59 41.6461V36.8279H367V36.828Z" fill="#E85A50" />
</svg>