<svg width="12" height="20" viewBox="0 0 12 20" fill="none" xmlns="http://www.w3.org/2000/svg">
<path d="M10.5 3.75C10.5 1.67895 8.48526 0 5.99999 0C3.51472 0 1.49999 1.67895 1.49999 3.75V11.6932C0.573033 12.5686 0.00776637 13.7163 7.88561e-05 14.9739C-0.0167493 17.7202 2.66197 19.9808 5.95738 19.9999C5.9714 20 5.98598 20 5.99999 20C9.31397 20 12 17.7616 12 15C12 13.7321 11.4334 12.5746 10.5 11.6932V3.75ZM5.99999 18.125L5.97299 18.1249C3.91705 18.113 2.23953 16.6974 2.25003 14.9835C2.25814 13.6562 3.15313 12.9659 3.74999 12.4023V3.75C3.74999 2.71613 4.75935 1.875 5.99999 1.875C7.24063 1.875 8.25 2.71613 8.25 3.75V12.4023C8.84203 12.9613 9.75 13.6587 9.75 15C9.75 16.7231 8.06775 18.125 5.99999 18.125ZM9 15C9 16.3807 7.65684 17.5 5.99999 17.5C4.34315 17.5 2.99999 16.3807 2.99999 15C2.99999 14.0748 3.60355 13.2676 4.49999 12.8353V3.75C4.49999 3.05965 5.17157 2.5 5.99999 2.5C6.82842 2.5 7.49999 3.05965 7.49999 3.75V12.8353C8.39643 13.2676 9 14.0748 9 15Z" fill="#E85A50"/>
</svg>
