<svg width="12" height="20" viewBox="0 0 12 20" fill="none" xmlns="http://www.w3.org/2000/svg">
<path d="M9.0003 15C9.0003 16.3807 7.65714 17.5 6.0003 17.5C4.34345 17.5 3.00029 16.3807 3.00029 15C3.00029 13.6193 4.34345 12.5 6.0003 12.5C7.65714 12.5 9.0003 13.6193 9.0003 15ZM10.5003 11.6932C11.4337 12.5746 12.0003 13.7321 12.0003 15C12.0003 17.7616 9.31422 20 6.0003 20C5.98628 20 5.97175 20 5.95769 19.9999C2.66228 19.9808 -0.0164441 17.7202 0.000384032 14.9739C0.00807154 13.7162 0.573338 12.5686 1.50029 11.6932V3.75C1.50029 1.67895 3.51503 0 6.0003 0C8.48557 0 10.5003 1.67895 10.5003 3.75V11.6932ZM9.7503 15C9.7503 13.6586 8.84233 12.9613 8.2503 12.4023V3.75C8.2503 2.71613 7.24094 1.875 6.0003 1.875C4.75966 1.875 3.75029 2.71613 3.75029 3.75V12.4023C3.15348 12.9659 2.2585 13.6562 2.25034 14.9835C2.23984 16.6974 3.91736 18.113 5.9733 18.1249L6.0003 18.125C8.06805 18.125 9.7503 16.7231 9.7503 15Z" fill="#E88073"/>
</svg>
