<svg width="128" height="137" viewBox="0 0 128 137" fill="none" xmlns="http://www.w3.org/2000/svg">
    <g clip-path="url(#clip0)">
        <path d="M54.4 51.3503C50.88 51.3503 48 55.2035 48 59.9128V81.3191C48 83.6845 46.568 85.6003 44.8 85.6003C43.032 85.6003 41.6 83.6845 41.6 81.3191V60.836C41.6 56.1828 42.544 51.6126 44.338 47.6203L59.888 12.9448C61.706 8.88836 60.726 3.63045 57.694 1.19549C54.804 -1.12441 51.15 0.044904 49.234 3.65988C49.194 3.72143 49.11 3.71608 49.076 3.78832L25.624 50.8553C23.512 55.0938 22.4 60.0199 22.4 65.0985V86.5663L4.376 94.6043C3.10154 95.1716 1.99294 96.2614 1.20747 97.7191C0.421999 99.1768 -0.000466572 100.928 3.86686e-07 102.725V128.413C3.86686e-07 131.308 1.704 136.975 6.4 136.975C6.938 136.975 7.482 136.884 8.012 136.7L43.85 124.225C53.832 120.407 60.8 108.047 60.8 94.1628V59.9128C60.8 55.2035 57.92 51.3503 54.4 51.3503ZM123.624 94.6258L105.6 86.5877V65.1199C105.6 60.0413 104.488 55.1152 102.376 50.8767L78.924 3.8124C78.888 3.74016 78.806 3.74819 78.766 3.68397C76.85 0.0689861 73.196 -1.10033 70.306 1.21957C67.274 3.65186 66.294 8.91244 68.112 12.9689L83.662 47.6444C85.456 51.6367 86.4 56.2069 86.4 60.8601V81.3432C86.4 83.7086 84.968 85.6244 83.2 85.6244C81.432 85.6244 80 83.7086 80 81.3432V59.9369C80 55.2276 77.12 51.3744 73.6 51.3744C70.08 51.3744 67.2 55.2276 67.2 59.9369V94.1869C67.2 108.072 74.168 120.431 84.15 124.247L119.988 136.721C120.52 136.906 121.064 136.997 121.6 136.997C126.296 136.997 128 131.329 128 128.434V102.747C128 99.0622 126.238 95.7924 123.624 94.6258Z" fill="#E85A4F" />
    </g>
    <defs>
        <clipPath id="clip0">
            <rect width="128" height="137" fill="white" />
        </clipPath>
    </defs>
</svg>