<svg width="48" height="50" viewBox="0 0 48 50" fill="none" xmlns="http://www.w3.org/2000/svg">
<path d="M48 23.4375C48 21.1299 46.8759 19.1367 45.2222 18.0547V3.12598C45.2222 2.27148 44.6163 0 42.4444 0C41.8264 0 41.2127 0.232422 40.7101 0.685547L33.329 7.3291C29.6215 10.6631 24.967 12.5 20.2222 12.5H3.55556C0.486979 12.5 -2 15.2979 -2 18.75V28.125C-2 31.5771 0.486979 34.375 3.55556 34.375H6.4809C6.36024 35.3984 6.29167 36.4395 6.29167 37.5C6.29167 41.3838 7.09549 45.0537 8.51042 48.334C8.96094 49.3779 9.94444 50 10.9757 50H17.4236C19.6849 50 21.0425 47.0859 19.6719 45.0625C18.2483 42.9609 17.4019 40.3398 17.4019 37.5C17.4019 36.415 17.5425 35.3721 17.7847 34.375H20.2222C24.967 34.375 29.6215 36.2119 33.3281 39.5459L40.7092 46.1895C41.2015 46.6326 41.8131 46.8744 42.4436 46.875C44.6068 46.875 45.2214 44.6504 45.2214 43.75V28.8213C46.8759 27.7383 48 25.7451 48 23.4375ZM39.6667 37.248L36.7977 34.666C32.1102 30.4473 26.2222 28.125 20.2222 28.125V18.75C26.2222 18.75 32.1102 16.4277 36.7977 12.209L39.6667 9.62695V37.248Z" fill="#8E8D8A"/>
</svg>
