<svg width="48" height="44" viewBox="0 0 48 44" fill="none" xmlns="http://www.w3.org/2000/svg">
<path d="M37.5833 0C31.8541 0 27.1666 4.6875 27.1666 10.4167C27.1666 12.4765 27.7925 14.3905 28.8349 16.0116L27.2033 21.5902C26.9824 22.4714 27.8963 23.2049 28.7088 22.7987L33.4573 19.9666C34.7254 20.5189 36.118 20.8333 37.5833 20.8333C43.3125 20.8333 48 16.1458 48 10.4167C48 4.6875 43.3125 0 37.5833 0ZM36.0289 4.16667H39.1417L38.7959 12.4715H36.3707L36.0289 4.16667ZM15.7083 10.4167C13.7744 10.4167 11.9198 11.1849 10.5523 12.5523C9.18487 13.9198 8.41665 15.7745 8.41665 17.7083C8.41665 19.6422 9.18487 21.4969 10.5523 22.8643C11.9198 24.2318 13.7744 25 15.7083 25C17.6422 25 19.4968 24.2318 20.8643 22.8643C22.2318 21.4969 23 19.6422 23 17.7083C23 15.7745 22.2318 13.9198 20.8643 12.5523C19.4968 11.1849 17.6422 10.4167 15.7083 10.4167ZM37.5833 14.0299C37.8 14.0299 37.9983 14.0648 38.1733 14.1398C38.3504 14.2148 38.5 14.3179 38.625 14.445C38.7479 14.5721 38.8431 14.7216 38.9098 14.8966C38.9765 15.0696 39.0115 15.2601 39.0115 15.4663C39.0094 15.6663 38.9786 15.8488 38.9098 16.0238C38.8431 16.1988 38.7479 16.3483 38.625 16.4754C38.5 16.6025 38.3504 16.7057 38.1733 16.7765C37.9983 16.8474 37.8 16.8823 37.5833 16.8823C37.3646 16.8823 37.1704 16.8494 36.9933 16.7765C36.8204 16.7078 36.6686 16.6025 36.5457 16.4754C36.4228 16.3483 36.3256 16.1988 36.2568 16.0238C36.1881 15.8488 36.1551 15.6642 36.1551 15.4663C36.1551 15.2601 36.1901 15.0696 36.2568 14.8966C36.3256 14.7216 36.4228 14.5721 36.5457 14.445C36.6686 14.3179 36.8204 14.2148 36.9933 14.1398C37.1704 14.0648 37.3666 14.0299 37.5833 14.0299ZM15.7083 29.1667C9.48956 29.1667 0.083313 32.9062 0.083313 38.5417V41.6667C0.083313 42.8167 1.01665 43.75 2.16665 43.75H29.25C30.4 43.75 31.3333 42.8167 31.3333 41.6667V38.5417C31.3333 32.9062 21.9271 29.1667 15.7083 29.1667Z" fill="#8E8D8A"/>
</svg>
