<svg width="374" height="58" viewBox="0 0 374 58" fill="none" xmlns="http://www.w3.org/2000/svg">
<path d="M50.7036 5.0243C50.7036 5.9003 50.5628 6.6088 50.2803 7.1499C49.9977 7.6909 49.6766 8.1161 49.317 8.4253C48.906 8.786 48.4694 9.0436 48.007 9.1982V47.7695H48.0841C48.0841 48.2848 48.1483 48.6456 48.2767 48.8517C48.4052 49.0579 48.5978 49.264 48.8546 49.4702C49.2656 49.7794 49.6765 50.2174 50.0875 50.7842C50.4984 51.3511 50.704 52.0722 50.704 52.9482V57.8182H34.8301V52.9482C34.8301 52.0722 35.0356 51.3511 35.4465 50.7842C35.8575 50.2174 36.2684 49.7794 36.6794 49.4702C36.9362 49.264 37.1289 49.0579 37.2573 48.8517C37.3858 48.6456 37.45 48.2848 37.45 47.7695V25.3533C37.45 25.2503 37.4371 25.173 37.4114 25.1214C37.3858 25.0699 37.3216 25.1472 37.2189 25.3533C35.6777 27.7753 34.2907 29.9912 33.0577 32.0009C32.4927 32.8769 31.9533 33.7272 31.4395 34.5517C30.9258 35.3762 30.4634 36.1363 30.0525 36.832C29.6415 37.5276 29.2819 38.1331 28.9737 38.6484C28.6655 39.1638 28.4599 39.4987 28.3572 39.6533C28.1004 40.1171 27.6894 40.452 27.1244 40.6582C26.5593 40.8643 25.9685 40.9673 25.3521 40.9673C24.7356 40.9673 24.1448 40.8643 23.5797 40.6582C23.0147 40.452 22.6294 40.1428 22.4239 39.7306C22.3211 39.576 22.1285 39.2411 21.8459 38.7257C21.5634 38.2104 21.2166 37.592 20.8057 36.8706C20.3947 36.1492 19.9324 35.3633 19.4186 34.513C18.9049 33.6628 18.3911 32.7996 17.8774 31.9236C16.6445 29.8623 15.2831 27.5691 13.7933 25.0441C13.7419 24.9411 13.6649 24.8895 13.5622 24.8895C13.4594 24.8895 13.408 24.9926 13.408 25.1987V47.7695C13.408 48.2848 13.4722 48.6456 13.6007 48.8517C13.7291 49.0579 13.9218 49.264 14.1786 49.4702C14.5896 49.7794 15.0005 50.2174 15.4115 50.7842C15.8224 51.3511 16.0279 52.0722 16.0279 52.9482V57.8182H0.231096V52.9482C0.231096 52.0722 0.436609 51.3511 0.847557 50.7842C1.25851 50.2174 1.66945 49.7794 2.0804 49.4702C2.28592 49.264 2.4529 49.0708 2.58136 48.8905C2.70981 48.7101 2.79974 48.388 2.85113 47.9242V9.1984C2.28607 9.0438 1.79806 8.7862 1.38712 8.4254C1.02749 8.1162 0.706388 7.6911 0.423817 7.15C0.141247 6.6089 0 5.9003 0 5.0243V0H10.9422C11.3018 0 11.61 0.0901994 11.8669 0.270599C12.1237 0.450899 12.3805 0.8503 12.6374 1.4687C13.0997 2.4993 13.7162 3.7747 14.4868 5.2949C15.2573 6.8151 16.0793 8.4126 16.9526 10.0873C17.8259 11.762 18.7249 13.4369 19.6496 15.1116C20.5743 16.7863 21.3963 18.2937 22.1155 19.6335C22.8347 20.9733 23.4382 22.0684 23.9263 22.9186L24.6583 24.194C24.9151 24.5548 25.172 24.748 25.4288 24.7738C25.6856 24.7995 25.9425 24.6063 26.1993 24.194C26.8672 23.1119 27.5607 21.9267 28.2799 20.6384C28.8963 19.5562 29.5898 18.3452 30.3604 17.0054C31.131 15.6656 31.953 14.2743 32.8263 12.8313C34.7784 9.5333 37.0132 5.7714 39.5303 1.546C39.8385 0.875998 40.1596 0.450899 40.4935 0.270599C40.8274 0.0901994 41.1998 0 41.6108 0H50.7036V5.0243Z" fill="#E85A50"/>
<path d="M97.0227 57.8182C100.389 57.8102 101.888 57.4542 101.888 57.4542C101.888 57.4542 100.922 53.6472 100.738 51.3624C100.554 49.0777 100.449 47.8874 100.738 44.7626C101.013 41.8022 101.473 36.4264 103.465 35.1401C105.211 34.0121 111.325 31.4375 112.922 30.4228C114.519 29.4081 119.678 25.6003 120.721 24.7755C121.766 23.9506 127.479 19.5722 129.076 17.6061C130.672 15.6399 131.347 15.0683 132.33 13.1644C133.313 11.2615 133.927 8.15197 133.927 6.75547C133.927 5.35997 133.927 2.31377 133.496 1.23577C133.067 0.156767 132.944 -0.0964304 132.084 0.0301696C131.224 0.15677 131.469 -0.0974324 130.918 1.04487C130.364 2.18717 129.874 4.02677 128.89 4.53517C127.907 5.04247 117.466 6.24817 113.597 7.96107C109.727 9.67407 106.483 11.2901 102.172 14.4333C99.0398 16.7169 96.5841 20.9055 96.5841 20.9055L96.5505 20.8514C96.5505 20.8514 94.1264 16.7179 90.995 14.4333C86.6851 11.2901 83.4397 9.67407 79.5695 7.96107C75.7002 6.24817 65.2588 5.04247 64.2767 4.53517C63.2926 4.02677 62.8021 2.18717 62.2495 1.04487C61.6969 -0.0974324 61.9422 0.15677 61.0833 0.0301696C60.2223 -0.0974304 60.1002 0.156767 59.6697 1.23577C59.2402 2.31477 59.2402 5.35997 59.2402 6.75547C59.2402 8.15197 59.8549 11.2615 60.836 13.1644C61.819 15.0683 62.4948 15.6389 64.0915 17.6061C65.6883 19.5733 71.4015 23.9506 72.4447 24.7755C73.4888 25.6003 78.6485 29.4081 80.2452 30.4228C81.8419 31.4375 87.9552 34.0121 89.7025 35.1401C91.6941 36.4264 92.896 41.8011 93.1504 44.7626C93.4344 48.0824 93.3346 49.0777 93.1504 51.3624C92.9662 53.6472 92.1979 57.5652 92.1979 57.5652C92.1979 57.5652 94.0826 57.8212 97.0227 57.8182Z" fill="#E85A50"/>
<path d="M152.108 17.767C152.108 18.7708 152.571 19.6866 153.496 20.5147C154.422 21.3429 155.585 22.171 156.986 22.9991C158.387 23.8273 159.888 24.693 161.489 25.5965C163.09 26.4999 164.591 27.5288 165.992 28.6831C167.393 29.8375 168.557 31.1549 169.482 32.6356C170.408 34.1162 170.871 35.8603 170.871 37.8678V46.5255C170.871 48.4327 170.433 50.1016 169.557 51.532C168.682 52.9622 167.543 54.1422 166.142 55.0702C164.741 55.9992 163.153 56.6892 161.377 57.1402C159.6 57.5922 157.787 57.8182 155.935 57.8182C154.084 57.8182 152.258 57.5922 150.457 57.1402C148.655 56.6892 147.054 55.9992 145.653 55.0702C144.252 54.1422 143.127 52.9622 142.276 51.532C141.426 50.1016 141 48.4327 141 46.5255V40.1264H147.154C148.505 40.1264 149.519 40.5404 150.194 41.3686C150.869 42.1967 151.207 43.188 151.207 44.3423V45.848C151.207 46.651 151.67 47.3537 152.596 47.956C153.521 48.5582 154.634 48.8594 155.935 48.8594C157.236 48.8594 158.324 48.4955 159.2 47.7677C160.076 47.04 160.513 46.3248 160.513 45.6221V39.7499C160.513 38.0937 160.051 36.726 159.125 35.6469C158.199 34.5679 157.049 33.6143 155.673 32.7861C154.297 31.958 152.796 31.1675 151.17 30.4147C149.544 29.6618 148.042 28.7458 146.667 27.6668C145.291 26.5877 144.14 25.2828 143.214 23.752C142.289 22.2211 141.826 20.2764 141.826 17.9174V11.5935C141.826 9.5859 142.214 7.867 142.989 6.4365C143.765 5.0061 144.803 3.8267 146.104 2.8982C147.405 1.9697 148.906 1.2921 150.607 0.865498C152.308 0.438898 154.084 0.225597 155.935 0.225597C157.787 0.225597 159.563 0.464 161.264 0.9408C162.965 1.4176 164.454 2.1202 165.73 3.0487C167.005 3.9772 168.019 5.1566 168.769 6.587C169.52 8.0174 169.895 9.6863 169.895 11.5935V17.9174H164.266C163.015 17.9174 161.965 17.5409 161.114 16.7881C160.263 16.0352 159.838 15.0565 159.838 13.852V12.271C159.838 11.217 159.425 10.4015 158.6 9.8243C157.774 9.2471 156.861 8.9585 155.86 8.9585C154.81 8.9585 153.922 9.2596 153.196 9.8619C152.471 10.4642 152.108 11.1418 152.108 11.8946V17.7668V17.767ZM192.41 57.7432C187.757 57.7432 184.08 56.7012 181.378 54.6192C178.676 52.5362 177.325 49.5623 177.325 45.6976V12.2712C177.325 8.4065 178.663 5.4204 181.34 3.3124C184.017 1.2044 187.707 0.150398 192.41 0.150398C197.164 0.150398 200.829 1.2044 203.405 3.3124C205.982 5.4204 207.27 8.4065 207.27 12.2712V45.6976C207.27 49.5623 205.97 52.5362 203.368 54.6192C200.766 56.7012 197.113 57.7432 192.41 57.7432ZM196.838 13.1747C196.838 12.2712 196.663 11.5434 196.313 10.9913C195.963 10.4393 195.55 10.0126 195.075 9.7115C194.599 9.4104 194.112 9.1971 193.611 9.0716C193.111 8.9461 192.711 8.8834 192.41 8.8834C192.11 8.8834 191.71 8.9336 191.21 9.0339C190.709 9.1343 190.209 9.3225 189.708 9.5986C189.208 9.8746 188.77 10.2636 188.395 10.7656C188.02 11.2675 187.832 11.945 187.832 12.7982V45.02C187.832 45.7728 187.982 46.4002 188.283 46.9021C188.583 47.404 188.958 47.8055 189.408 48.1067C189.859 48.4078 190.359 48.6337 190.909 48.7842C191.46 48.9348 191.96 49.0101 192.41 49.0101C193.461 49.0101 194.462 48.7089 195.412 48.1067C196.363 47.5044 196.838 46.4504 196.838 44.9447V13.1747ZM229.26 57.5922C227.409 57.5922 225.595 57.3672 223.819 56.9152C222.043 56.4632 220.467 55.7732 219.091 54.8452C217.715 53.9162 216.602 52.7372 215.751 51.3063C214.9 49.8759 214.475 48.2071 214.475 46.2999V11.3679C214.475 9.4607 214.9 7.7919 215.751 6.3615C216.602 4.9311 217.727 3.7516 219.128 2.8231C220.529 1.8946 222.118 1.192 223.894 0.715199C225.67 0.238399 227.484 0 229.335 0C231.186 0 233 0.238399 234.776 0.715199C236.553 1.192 238.129 1.8946 239.505 2.8231C240.881 3.7516 241.981 4.9311 242.807 6.3615C243.633 7.7919 244.045 9.4607 244.045 11.3679V16.939H238.416C237.166 16.939 236.115 16.5625 235.264 15.8097C234.414 15.0568 233.988 14.0782 233.988 12.8736V12.7983C233.988 12.2964 233.926 11.7945 233.801 11.2925C233.676 10.7906 233.451 10.3515 233.125 9.9751C232.8 9.5986 232.325 9.2975 231.699 9.0717C231.074 8.8458 230.261 8.7329 229.26 8.7329C228.31 8.7329 227.534 8.8584 226.934 9.1093C226.333 9.3602 225.858 9.6614 225.508 10.0127C225.158 10.3641 224.92 10.7656 224.795 11.2173C224.67 11.669 224.607 12.0705 224.607 12.4218V45.3964C224.607 46.0991 225.057 46.8143 225.958 47.542C226.859 48.2698 227.959 48.6337 229.26 48.6337C230.561 48.6337 231.687 48.3325 232.638 47.7302C233.588 47.128 234.064 46.4253 234.064 45.6223V44.8694C234.064 43.7151 234.401 42.7238 235.077 41.8957C235.752 41.0676 236.765 40.6535 238.116 40.6535H244.045V46.2998C244.045 48.207 243.62 49.8759 242.77 51.3063C241.919 52.7362 240.806 53.9162 239.43 54.8442C238.054 55.7732 236.478 56.4632 234.702 56.9152C232.925 57.3662 231.112 57.5922 229.26 57.5922ZM262.208 47.4291C262.208 47.9812 262.283 48.3576 262.433 48.5584C262.583 48.7592 262.758 48.9348 262.959 49.0854C263.359 49.3865 263.759 49.8131 264.159 50.3652C264.56 50.9173 264.76 51.6199 264.76 52.4732V57.2162H249.374V52.4732C249.374 51.6199 249.574 50.9173 249.975 50.3652C250.375 49.8131 250.775 49.3865 251.175 49.0854C251.425 48.9348 251.613 48.7592 251.738 48.5584C251.863 48.3576 251.926 47.9812 251.926 47.4291V10.7656V10.6903C251.926 10.1884 251.863 9.837 251.738 9.6362C251.613 9.4354 251.425 9.2346 251.175 9.0339C250.775 8.7327 250.375 8.3061 249.975 7.754C249.574 7.202 249.374 6.4993 249.374 5.6461V0.903198H264.76V5.6461C264.76 6.4993 264.56 7.202 264.159 7.754C263.759 8.3061 263.359 8.7327 262.959 9.0339C262.758 9.2346 262.583 9.4354 262.433 9.6362C262.283 9.837 262.208 10.1884 262.208 10.6903V10.7656V47.4291ZM282.697 9.6363C282.447 9.6363 282.209 9.7494 281.984 9.9753C281.759 10.2011 281.646 10.4396 281.646 10.6905V23.1877C281.646 23.5391 281.759 23.8026 281.984 23.9782C282.209 24.1538 282.472 24.2417 282.772 24.2417H292.229C292.479 24.2417 292.741 24.3296 293.017 24.5052C293.292 24.6808 293.429 24.9694 293.429 25.3709V31.3937C293.429 32.0963 293.054 32.4476 292.304 32.4476H282.772C282.022 32.4476 281.646 32.7738 281.646 33.4263V47.5045C281.646 47.8057 281.771 48.0566 282.022 48.2574C282.272 48.4582 282.547 48.5585 282.847 48.5585H288.851C289.302 48.5585 289.652 48.3076 289.902 47.8057C290.002 47.5548 290.127 47.2536 290.277 46.9023C290.427 46.5509 290.64 46.2247 290.915 45.9236C291.19 45.6224 291.528 45.3589 291.928 45.1331C292.329 44.9072 292.804 44.7943 293.354 44.7943H298.007V55.3342C298.007 55.8862 297.732 56.3382 297.182 56.6892C296.632 57.0402 296.081 57.2162 295.531 57.2162H290.653H273.466H268.963V52.6992C268.963 51.595 269.113 50.7543 269.413 50.1771C269.713 49.5999 270.113 49.1858 270.614 48.9349C271.214 48.5835 271.514 48.0565 271.514 47.3539V10.7656C271.514 9.9626 271.189 9.3854 270.539 9.034C270.038 8.7831 269.651 8.3941 269.375 7.8671C269.1 7.3401 268.963 6.5747 268.963 5.5709V0.827999H295.831C296.431 0.827999 296.944 1.0538 297.37 1.5056C297.795 1.9573 298.007 2.3839 298.007 2.7854V12.7229H293.579C292.579 12.7229 291.778 12.472 291.178 11.9701C290.577 11.4682 290.152 10.9914 289.902 10.5397C289.552 9.9374 289.026 9.6363 288.326 9.6363H282.697ZM333.207 0.9786C334.257 0.9786 334.995 1.1539 335.421 1.5053C335.846 1.8566 336.059 2.6847 336.059 3.9897V9.2596V13.0238H331.706C330.405 13.0238 329.429 12.4215 328.779 11.217C328.528 10.6649 328.291 10.2885 328.066 10.0877C327.84 9.8869 327.303 9.7866 326.452 9.7866H325.476C324.826 9.7866 324.501 10.2132 324.501 11.0664L324.351 47.5041C324.351 48.006 324.451 48.3574 324.651 48.5581C324.851 48.7589 325.076 48.9597 325.326 49.1605C325.677 49.4114 326.027 49.8004 326.377 50.3274C326.727 50.8544 326.902 51.5696 326.902 52.4732V57.2912H311.592V52.4732C311.592 51.6198 311.78 50.9172 312.155 50.3651C312.53 49.8131 312.918 49.4116 313.318 49.1607C313.568 48.9599 313.768 48.734 313.919 48.4831C314.069 48.2322 314.144 47.906 314.144 47.5045V10.8409C314.144 10.4896 313.994 10.2261 313.693 10.0504C313.393 9.8748 313.118 9.7869 312.868 9.7869H312.117C311.817 9.7869 311.454 9.8622 311.029 10.0128C310.604 10.1634 310.241 10.5648 309.941 11.2173C309.591 11.92 309.203 12.3967 308.777 12.6477C308.352 12.8986 307.589 13.0241 306.488 13.0241H302.586V8.8834V3.99C302.586 2.8356 302.861 2.0451 303.411 1.6185C303.962 1.1919 304.662 0.9786 305.513 0.9786H333.207ZM373.509 0.827999V5.6458C373.509 6.499 373.321 7.2017 372.946 7.7537C372.571 8.3058 372.208 8.7324 371.858 9.0336C371.657 9.1339 371.407 9.2845 371.107 9.4853C370.807 9.6861 370.607 9.9872 370.507 10.3887C370.457 10.489 370.307 10.9407 370.056 11.7438C369.806 12.5469 369.481 13.5883 369.081 14.8681C368.681 16.1479 368.218 17.5909 367.692 19.197C367.167 20.803 366.654 22.4342 366.154 24.0905C364.903 27.9552 363.527 32.3469 362.026 37.2652V47.4287C362.026 47.9306 362.101 48.2819 362.251 48.4827C362.401 48.6835 362.601 48.8843 362.852 49.0851C363.252 49.336 363.64 49.7375 364.015 50.2895C364.39 50.8416 364.578 51.5944 364.578 52.5482V57.2162H349.342V52.4732C349.342 51.6196 349.542 50.917 349.943 50.3649C350.343 49.8128 350.743 49.3862 351.143 49.0851C351.344 48.9345 351.506 48.7589 351.631 48.5581C351.756 48.3573 351.844 48.0311 351.894 47.5794V37.2654C350.193 32.2966 348.667 27.8548 347.316 23.94C346.716 22.2838 346.14 20.6401 345.59 19.0089C345.039 17.3777 344.539 15.9222 344.089 14.6424C343.638 13.3626 343.276 12.3212 343.001 11.5181C342.725 10.715 342.588 10.2633 342.588 10.163C342.488 9.9121 342.325 9.6862 342.1 9.4854C341.875 9.2846 341.712 9.1341 341.612 9.0337C341.212 8.7326 340.824 8.3059 340.449 7.7539C340.074 7.2018 339.886 6.4992 339.886 5.646V0.827801H354.296V5.9471C354.296 6.8505 354.258 7.5281 354.183 7.9798C354.108 8.4315 353.87 8.7829 353.47 9.0338C353.22 9.1844 352.97 9.36 352.72 9.5608C352.47 9.7616 352.395 10.0878 352.495 10.5395C352.495 10.6398 352.57 10.9535 352.72 11.4805C352.87 12.0075 353.032 12.66 353.208 13.4379C353.383 14.2158 353.595 15.0816 353.845 16.0352L354.596 18.8961C355.146 21.2048 355.797 23.7395 356.547 26.4998L356.697 26.2739C357.448 23.4633 358.123 20.9287 358.724 18.6702C358.974 17.7166 359.224 16.7755 359.474 15.847C359.724 14.9186 359.95 14.0778 360.15 13.325C360.35 12.5722 360.512 11.9322 360.638 11.4052C360.763 10.8783 360.85 10.5645 360.9 10.4642C361 10.0627 360.925 9.7616 360.675 9.5608C360.425 9.36 360.175 9.1844 359.925 9.0338C359.574 8.7829 359.349 8.3814 359.249 7.8293C359.149 7.2773 359.099 6.5495 359.099 5.6461V0.8279H373.509V0.827999Z" fill="#E85A50"/>
</svg>
